<svg xmlns="http://www.w3.org/2000/svg" width="23.627" height="23.627" viewBox="0 0 23.627 23.627">
  <defs>
    <style>
      .cls-1 {
        fill: #fbbd00;
      }

      .cls-2 {
        fill: #0f9d58;
      }

      .cls-3 {
        fill: #31aa52;
      }

      .cls-4 {
        fill: #3c79e6;
      }

      .cls-5 {
        fill: #cf2d48;
      }

      .cls-6 {
        fill: #eb4132;
      }
    </style>
  </defs>
  <g id="google" transform="translate(0)">
    <path id="Path_987" data-name="Path 987" class="cls-1" d="M5.538,107.4a6.238,6.238,0,0,1,.883-3.206v-3.983H2.438a11.82,11.82,0,0,0,0,14.378H6.421V110.61A6.237,6.237,0,0,1,5.538,107.4Z" transform="translate(0 -95.59)"/>
    <path id="Path_988" data-name="Path 988" class="cls-2" d="M198.769,373.84,196,376.608l2.769,2.769a11.724,11.724,0,0,0,7.189-2.438v-3.979h-3.979A6.275,6.275,0,0,1,198.769,373.84Z" transform="translate(-186.955 -355.75)"/>
    <path id="Path_989" data-name="Path 989" class="cls-3" d="M56.806,325.477l-3.983,3.983a12,12,0,0,0,1.023,1.165,11.737,11.737,0,0,0,8.354,3.46v-5.538A6.279,6.279,0,0,1,56.806,325.477Z" transform="translate(-50.385 -310.457)"/>
    <path id="Path_990" data-name="Path 990" class="cls-4" d="M267.814,200.032a11.919,11.919,0,0,0-.193-2.14l-.1-.568H256v5.538h5.6a6.248,6.248,0,0,1-2.394,2.568l3.979,3.979a12.011,12.011,0,0,0,1.165-1.023A11.737,11.737,0,0,0,267.814,200.032Z" transform="translate(-244.186 -188.218)"/>
    <path id="Path_991" data-name="Path 991" class="cls-5" d="M203.207,7.376l.489.489,3.916-3.916-.489-.489A11.736,11.736,0,0,0,198.769,0L196,2.769l2.769,2.769A6.235,6.235,0,0,1,203.207,7.376Z" transform="translate(-186.955)"/>
    <path id="Path_992" data-name="Path 992" class="cls-6" d="M62.2,5.538V0a11.737,11.737,0,0,0-8.354,3.46,11.991,11.991,0,0,0-1.023,1.165L56.8,8.608A6.279,6.279,0,0,1,62.2,5.538Z" transform="translate(-50.384 0)"/>
  </g>
</svg>
